{"title":"Metallica - 2003-06-08 Rock Am Ring 480p xvid-DHARMA","uid":10463770,"size":1468011666,"categoryP":"video","categoryS":"music_videos","magnet":"?xt=urn:btih:83084940bc31d24e268f0bfd29c37cd60b74f39e&amp;dn=Metallica+-+2003-06-08+Rock+Am+Ring+480p+xvid-DHARMA&amp;tr=udp%3A%2F%2Ftracker.openbittorrent.com%3A80&amp;tr=udp%3A%2F%2Fopen.demonii.com%3A1337&amp;tr=udp%3A%2F%2Ftracker.coppersurfer.tk%3A6969&amp;tr=udp%3A%2F%2Fexodus.desync.com%3A6969","seeders":1,"leechers":0,"uploader":"DharmaWorkMan","files":1,"time":1404166743,"description":"Format : AVI\nFormat/Info : Audio Video Interleave\nFile size : 1.37 GiB\nDuration : 2h 1mn\nOverall bit rate mode : Variable\nOverall bit rate : 1 613 Kbps\n\nVideo\nID : 0\nFormat : MPEG-4 Visual\nFormat settings, BVOP : No\nFormat settings, QPel : No\nFormat settings, GMC : No warppoints\nFormat settings, Matrix : Default (H.263)\nCodec ID : XVID\nCodec ID/Hint : XviD\nDuration : 2h 1mn\nBit rate : 1 285 Kbps\nWidth : 640 pixels\nHeight : 480 pixels\nDisplay aspect ratio : 4:3\nFrame rate : 25.000 fps\nColor space : YUV\nChroma subsampling : 4:2:0\nBit depth : 8 bits\nScan type : Progressive\nCompression mode : Lossy\nBits/(Pixel*Frame) : 0.167\nStream size : 1.09 GiB (80%)\n\nAudio\nID : 1\nFormat : MPEG Audio\nFormat version : Version 1\nFormat profile : Layer 3\nMode : Joint stereo\nMode extension : MS Stereo\nCodec ID : 55\nCodec ID/Hint : MP3\nDuration : 1h 12mn\nSource duration : 2h 1mn\nBit rate mode : Variable\nBit rate : 315 Kbps\nChannel(s) : 2 channels\nSampling rate : 48.0 KHz\nCompression mode : Lossy\nStream size : 274 MiB (20%)\nAlignment : Aligned on interleaves\nInterleave, duration : 24 ms (0.60 video frame)\nWriting library : LAME3.92\nEncoding settings : -m j -V 0 -q 2 -lowpass 22.3 --abr\n","torrent":{"xt":"urn:btih:83084940bc31d24e268f0bfd29c37cd60b74f39e","amp;dn":"Metallica+-+2003-06-08+Rock+Am+Ring+480p+xvid-DHARMA","amp;tr":["udp%3A%2F%2Ftracker.openbittorrent.com%3A80","udp%3A%2F%2Fopen.demonii.com%3A1337","udp%3A%2F%2Ftracker.coppersurfer.tk%3A6969","udp%3A%2F%2Fexodus.desync.com%3A6969"],"infoHash":"83084940bc31d24e268f0bfd29c37cd60b74f39e","infoHashBuffer":{"type":"Buffer","data":[131,8,73,64,188,49,210,78,38,143,11,253,41,195,124,214,11,116,243,158]},"announce":[],"urlList":[]}}